<svg width="342" height="293" viewBox="0 0 342 293" fill="none" xmlns="http://www.w3.org/2000/svg">
<path d="M227.021 48.0877C231.773 52.8589 236.093 56.6221 236.621 56.4397C237.158 56.2669 237.869 54.8557 238.205 53.3197C238.541 51.7741 238.867 51.2749 238.925 52.1965C239.069 54.2509 241.91 54.3853 246.096 52.5517C254.688 48.7789 273.024 41.3293 279.36 39.0445C283.315 37.6237 288.077 35.8957 289.92 35.2141C296.717 32.6989 300.211 31.7965 303.139 31.7965C305.846 31.7965 306.499 32.4301 309.648 38.0557C311.578 41.5021 312.902 44.9581 312.605 45.7357C312.307 46.5229 310.531 47.8861 308.669 48.7789C305.232 50.4205 304.07 52.9165 306.749 52.9165C308.592 52.9165 319.325 47.5405 320.15 46.2061C320.755 45.2269 313.402 30.3949 310.272 26.2957C309.763 25.6333 309.408 25.1821 308.957 24.9133C311.155 25.0285 312.595 25.6909 313.363 26.8813C310.954 25.6909 310.685 25.8925 312 27.4765C312.653 28.2733 314.112 28.9165 315.235 28.9069C316.81 28.9069 316.915 28.7533 315.254 27.8605C316.848 27.8221 319.642 26.7949 324.95 24.5197C331.69 21.6205 333.283 21.2557 335.05 22.1965C337.613 23.5693 342.029 32.8621 341.174 35.0893C340.838 35.9725 337.181 38.3917 333.062 40.4653C326.218 43.9117 325.536 44.5069 325.258 47.3773C324.979 50.3149 324.259 50.8909 314.189 56.2765C308.266 59.4445 303.398 62.5645 303.389 63.2173C303.37 63.8701 304.944 66.8749 306.883 69.9085C304.944 66.8749 303.36 63.9757 303.36 63.4573C303.36 62.9389 303.197 62.5165 302.995 62.5165C302.477 62.5165 295.843 65.2237 291.341 67.2781C289.219 68.2477 282.086 71.2621 275.501 73.9693C257.04 81.5725 256.32 81.9277 256.32 83.2525C256.32 83.9341 258.931 88.6477 262.128 93.7165C269.837 105.957 280.08 124.638 283.978 133.557C289.853 147.035 290.102 147.4 293.76 148.024C305.366 150.03 313.584 158.651 317.203 172.629C319.114 179.982 319.104 183.313 317.174 192.731C312.154 217.153 291.322 240.558 265.44 250.888C258.557 253.624 256.714 253.95 247.68 253.989C238.349 254.037 237.178 253.825 231.878 251.157C225.408 247.902 216.95 239.973 214.195 234.587C212.429 231.121 212.074 230.929 203.981 229.269C194.275 227.272 179.635 220.763 172.186 215.137C169.402 213.035 166.426 211.317 165.571 211.317C164.717 211.317 162.077 212.459 159.706 213.851C155.712 216.184 155.088 216.289 151.459 215.205C146.938 213.851 141.456 210.549 138.816 207.601C136.522 205.038 135.11 205.038 129.821 207.601C121.642 211.557 113.731 208.821 103.805 198.587C99.0912 193.729 98.1792 193.211 93.2448 192.597C86.8896 191.8 83.2704 190.139 78.8736 186.011C75.0912 182.449 72.8064 178.245 70.704 170.929C69.8592 167.982 68.304 164.795 67.2576 163.845C65.1264 161.925 64.6752 161.982 53.28 165.688C49.056 167.07 43.872 168.683 41.76 169.288C39.648 169.883 37.6512 170.507 37.3152 170.67C36.9696 170.843 37.3728 173.502 38.1888 177.179C37.4976 174.529 36.9312 172.974 35.8176 172.206C33.9648 170.91 30.6048 171.774 22.6752 173.253C17.9808 174.126 10.9632 174.837 7.0752 174.837C0.864 174.837 0 174.625 0 173.08C0 167.502 12.384 155.608 27.8304 146.344L35.2512 141.899L35.232 142.225L43.296 137.781C52.4832 132.702 56.64 129.918 56.64 128.833C56.64 128.421 54.8928 127.297 52.752 126.337C48.048 124.216 43.8048 119.589 42.2496 114.865C41.616 112.945 40.5984 111.544 39.9936 111.745C39.7728 111.822 39.5616 112.033 39.3408 112.389C39.5328 111.937 39.7248 111.601 39.9072 111.409C40.6848 110.545 41.0784 109.192 40.7808 108.414C40.1088 106.667 42.8832 98.2093 44.736 96.3661C45.4752 95.6269 46.08 93.8413 46.08 92.4013C46.08 92.2957 46.08 92.1901 46.0896 92.0845C46.3104 93.3421 49.1232 90.9133 57.9936 81.8605C64.5504 75.1789 71.6448 67.5373 73.7664 64.8685C77.7024 59.9149 91.5648 33.7645 90.7104 32.9101C90.4608 32.6605 90 32.7085 89.3376 32.9965C90.8544 31.9885 92.7936 30.0781 94.0896 28.2829C96.9504 24.2893 105.072 19.3165 108.72 19.3165C109.45 19.3165 110.957 18.6349 112.474 17.6749C112.368 17.8573 112.32 18.0205 112.32 18.1837C112.32 18.5389 115.382 18.6925 119.146 18.5101C126.413 18.1741 134.083 19.4413 156 24.6157C167.539 27.3325 175.795 28.9165 203.664 33.7549C211.824 35.1757 217.891 38.9005 227.021 48.0877ZM233.645 245.349C239.942 248.401 250.57 248.68 258.355 246.001C278.966 238.907 296.093 223.825 306.221 203.848C317.386 181.797 314.208 161.214 298.406 153.342C292.474 150.385 288.96 150.078 288.95 152.517C288.95 153.717 288.403 153.371 287.04 151.317C285.994 149.733 285.13 147.774 285.13 146.968C285.12 145.441 274.234 123.256 265.93 107.838C260.218 97.2301 252.077 84.9517 250.349 84.3373C249.168 83.9149 243.878 86.0941 242.88 87.4189C242.016 88.5517 232.118 92.2765 229.978 92.2765C228.826 92.2765 227.05 92.9101 226.022 93.6877C224.995 94.4653 223.296 95.0797 222.24 95.0701C221.155 95.0509 222.624 93.9661 225.6 92.5837C240.96 85.4317 245.117 83.6365 246.307 83.6365C247.018 83.6365 251.77 81.6877 256.848 79.3165C261.936 76.9453 266.275 74.9965 266.506 74.9965C266.986 74.9965 289.171 65.2429 296.4 61.8541C299.174 60.5581 301.44 59.0989 301.44 58.6189C301.44 57.7645 291.187 61.2301 287.424 63.3517C285.715 64.3021 254.554 77.5981 239.52 83.7805C235.824 85.2973 231.936 86.9389 230.88 87.4189C227.376 89.0125 212.803 95.2717 200.64 100.408C169.709 113.473 150.422 121.95 149.462 122.91C148.704 123.669 149.251 123.957 151.43 123.957C153.091 123.957 154.714 124.389 155.04 124.917C156.307 126.961 175.315 124.849 184.8 121.614C185.856 121.249 185.53 121.643 184.08 122.488C182.63 123.333 181.44 124.35 181.44 124.763C181.44 126.635 170.65 128.075 156.518 128.104C140.198 128.133 136.483 127.509 122.054 122.286C102.259 115.134 96.4512 114.184 88.0224 116.737C76.4736 120.241 64.5696 130.321 62.3808 138.424C58.7232 152.027 68.2752 162.28 86.4768 164.296C90.9216 164.785 98.5152 165.621 103.363 166.158C108.202 166.686 113.165 167.512 114.403 167.992C115.632 168.462 119.885 169.835 123.84 171.025C127.795 172.216 131.453 173.56 131.952 174.011C132.451 174.462 133.469 174.837 134.208 174.837C137.155 174.837 141.677 177.87 142.925 180.683C145.066 185.521 166.291 205.969 175.517 212.085C190.157 221.8 204.874 226.398 218.083 225.4C225.965 224.805 234.739 223.393 237.523 222.28C239.261 221.589 239.261 221.656 237.418 223.499C235.258 225.659 229.142 228.184 223.21 229.355C220.973 229.806 219.254 230.737 219.091 231.582C218.669 233.781 228.029 242.632 233.645 245.349ZM57.8688 123.054C62.8032 124.273 66.5472 123.237 73.3536 118.763C76.8576 116.469 82.848 113.637 86.6592 112.475C90.48 111.304 94.896 109.672 96.48 108.837C102.086 105.861 110.525 98.7565 115.392 92.9197C122.794 84.0205 125.059 78.3277 125.76 66.8365C126.307 57.7837 126.413 57.3997 127.632 60.1165C128.342 61.7005 129.13 67.0189 129.379 71.9341C129.965 83.3965 130.79 84.1165 143.472 84.1165C148.253 84.1165 152.976 83.7229 153.974 83.2429C155.635 82.4461 155.731 82.6669 155.136 85.8829C154.704 88.1485 154.838 89.3965 155.501 89.3965C156.72 89.3965 183.206 79.2397 190.56 75.9565C191.616 75.4861 194.861 74.1709 197.76 73.0285C200.659 71.8861 203.904 70.5901 204.96 70.1389C210.307 67.8541 227.251 60.8365 228.72 60.3085C231.466 59.3101 230.698 57.4093 225.024 51.1501C215.933 41.0989 210.662 38.8045 188.4 35.1853C164.122 31.2397 161.885 30.8461 159.36 29.9629C158.035 29.5021 153.504 28.3789 149.28 27.4669C145.056 26.5549 138.979 25.2109 135.782 24.4813C132.576 23.7517 125.453 23.1661 119.942 23.1757C103.555 23.2141 99.984 25.9021 89.2416 46.3597C79.9008 64.1389 76.8192 68.3725 62.9472 82.5805C55.9296 89.7613 49.2672 97.4509 48.1344 99.6781C43.008 109.758 47.472 120.491 57.8688 123.054ZM113.568 115.211C118.195 116.555 119.731 116.44 124.128 114.472C133.44 110.296 141.965 106.677 142.493 106.677C142.8 106.677 144.893 105.841 147.13 104.814C153.254 102.011 172.79 93.9853 194.352 85.4125C204.941 81.1981 219.427 75.3709 226.56 72.4717C233.693 69.5629 243.619 65.5213 248.64 63.4765C253.661 61.4317 264.24 57.1213 272.16 53.8861C292.656 45.5053 297.523 43.6909 297.504 41.9245C297.504 41.2429 296.755 40.5613 295.901 39.5149L294.144 37.3357L289.392 39.4189C286.781 40.5613 283.776 41.8765 282.72 42.3373C281.664 42.7981 277.776 44.3341 274.08 45.7453C270.384 47.1565 263.904 49.7485 259.68 51.4957C255.456 53.2429 245.952 57.1213 238.56 60.0973C231.168 63.0829 224.256 65.9053 223.2 66.3757C222.144 66.8365 217.392 68.7661 212.64 70.6669C207.888 72.5581 203.136 74.4877 202.08 74.9677C197.741 76.9165 190.618 79.7677 175.2 85.7197C172.56 86.7469 169.536 87.9373 168.48 88.3789C165.379 89.6749 116.448 109.595 111.542 111.563C108.787 112.667 109.555 114.059 113.568 115.211ZM114.192 202.705C123.427 207.592 133.19 202.456 134.179 192.203C134.41 189.774 134.112 185.982 133.526 183.784C132.49 179.953 132.202 179.713 126.106 177.745L119.76 175.691L111.475 183.64C106.925 188.008 103.056 191.675 102.874 191.781C102.019 192.28 111.178 201.121 114.192 202.705ZM84.2976 185.397C89.4336 188.795 93.6768 189.073 99.6192 186.376C104.371 184.216 114.662 174.875 113.53 173.742C112.627 172.84 95.3952 170.449 83.28 169.537C75.312 168.933 74.88 169 74.88 170.824C74.88 174.75 79.8624 182.459 84.2976 185.397ZM7.4208 171.381C7.8144 171.765 9.648 171.793 11.5008 171.438C13.3632 171.083 18.336 170.229 22.56 169.537C32.0352 167.992 40.0992 165.957 42.9696 164.411C44.7552 163.451 44.9664 162.894 44.1408 161.358C42.8928 159.025 42.6336 159.025 39.6192 161.397C38.2752 162.453 36.048 163.278 34.6752 163.221C32.544 163.144 32.8512 162.817 36.72 161.128C39.6384 159.841 41.28 158.517 41.28 157.461C41.28 156.549 40.9536 155.656 40.56 155.473C40.1664 155.301 39.0912 153.534 38.1792 151.557C37.2192 149.493 35.8272 147.957 34.9056 147.957C32.832 147.957 15.0048 159.688 10.32 164.133C6.8832 167.397 5.8944 169.854 7.4208 171.381ZM146.4 209.819C147.984 210.616 150.49 211.278 151.968 211.297C154.954 211.317 160.32 208.878 160.32 207.505C160.32 206.565 141.581 188.027 140.083 187.48C139.594 187.297 139.2 189.217 139.2 191.733C139.2 194.238 138.672 197.771 138.019 199.576C136.877 202.725 136.954 202.945 140.179 205.605C142.013 207.131 144.816 209.022 146.4 209.819ZM280.32 159.928C280.32 161.262 279.926 162.357 279.456 162.357C278.707 162.357 274.56 156.232 274.56 155.137C274.56 154.254 266.659 142.609 261.475 135.841C256.973 129.947 256.138 128.315 256.982 127C258.518 124.638 262.81 125.339 265.258 128.344C271.728 136.264 280.32 154.283 280.32 159.928ZM273.6 171.141C273.6 173.934 272.496 173.32 266.371 167.099C263.222 163.902 257.395 158.814 253.44 155.781C246.355 150.357 244.31 147.102 246.566 144.846C248.218 143.195 252.029 144.865 257.165 149.473C263.078 154.792 273.6 168.664 273.6 171.141ZM267.84 184.993C267.84 186.078 266.122 186.328 259.44 186.203C242.15 185.886 236.803 184.072 238.694 179.157C239.434 177.217 249.533 177.237 255.36 179.195C265.258 182.507 267.84 183.707 267.84 184.993ZM118.09 101.157C118.08 102.241 118.445 102.136 127.459 98.4493C136.032 94.9357 139.93 92.6893 139.037 91.7869C138.758 91.5085 136.205 90.6829 133.363 89.9437C128.39 88.6573 124.8 89.1853 124.8 91.2109C124.8 91.6525 123.293 93.8989 121.45 96.2221C119.606 98.5357 118.099 100.763 118.09 101.157ZM41.472 148.725C41.9136 149.166 42.1632 149.493 42.4896 149.637C43.2384 149.963 44.3904 149.358 49.2192 147.16C56.1024 144.03 58.0224 142.149 57.1392 139.365C56.2848 136.686 55.3152 136.84 47.28 140.977C40.3968 144.52 39.0528 146.305 41.472 148.725ZM300.97 43.3357C303.562 47.4349 304.838 47.9149 307.661 45.8509C309.389 44.5837 309.36 44.3725 306.845 40.0909C304.291 35.7229 303.12 35.0509 300.077 36.2221C297.946 37.0381 298.186 38.9197 300.97 43.3357ZM318.403 34.0333C319.43 35.0701 320.4 34.8301 327.955 31.6909C333.226 29.4925 335.059 28.2829 334.829 27.1309C334.406 25.0381 331.613 25.4989 323.923 28.9453C318.058 31.5853 316.954 32.5933 318.403 34.0333ZM57.7152 224.603C52.6272 216.779 48.4512 208.571 45.0336 199.71C48.2784 207.64 53.0016 216.933 57.7152 224.603ZM164.746 291.966C150 290.104 136.339 286.341 122.909 280.417C136.205 286.168 150.547 290.171 164.746 291.966ZM35.8464 132.376L35.52 137.569V135.851C35.52 132.558 35.9808 128.085 36.6432 123.851C36.3072 126.443 36.0384 129.333 35.8464 132.376ZM125.578 10.5709C134.89 6.76931 147.302 3.09251 157.286 1.46051C147.763 3.01571 135.053 6.84611 125.578 10.5709ZM87.2832 258.126C83.7792 255.064 80.2656 251.713 76.608 247.979C74.0256 245.32 71.5776 242.661 69.264 239.963C74.7072 246.136 81.2448 252.731 87.2832 258.126ZM79.9296 40.7149C83.4816 37.1533 86.5248 34.4749 88.1856 33.6301C86.1888 34.8973 83.2416 37.4605 79.9296 40.7149ZM287.261 30.3949C292.675 28.3693 297.178 26.9101 300.845 26.0077C297.168 26.9869 291.494 28.8109 287.261 30.3949ZM50.88 80.0077C53.424 75.0157 56.7456 69.2845 60.2112 64.0621C56.8608 69.1021 53.4912 74.9389 50.88 80.0077Z" fill="#020202"/>
<path d="M113.568 115.211C109.555 114.059 108.787 112.667 111.542 111.563C116.448 109.595 165.379 89.6749 168.48 88.3789C169.536 87.9373 172.56 86.7469 175.2 85.7197C190.618 79.7677 197.741 76.9165 202.08 74.9677C203.136 74.4877 207.888 72.5581 212.64 70.6669C217.392 68.7661 222.144 66.8365 223.2 66.3757C224.256 65.9053 231.168 63.0829 238.56 60.0973C245.952 57.1213 255.456 53.2429 259.68 51.4957C263.904 49.7485 270.384 47.1565 274.08 45.7453C277.776 44.3341 281.664 42.7981 282.72 42.3373C283.776 41.8765 286.781 40.5613 289.392 39.4189L294.144 37.3357L295.901 39.5149C296.755 40.5613 297.504 41.2429 297.504 41.9245C297.523 43.6909 292.656 45.5053 272.16 53.8861C264.24 57.1213 253.661 61.4317 248.64 63.4765C243.619 65.5213 233.693 69.5629 226.56 72.4717C219.427 75.3709 204.941 81.1981 194.352 85.4125C172.79 93.9853 153.254 102.011 147.13 104.814C144.893 105.841 142.8 106.677 142.493 106.677C141.965 106.677 133.44 110.296 124.128 114.472C119.731 116.44 118.195 116.555 113.568 115.211ZM180.605 125.646C181.152 125.368 181.44 125.07 181.44 124.763C181.44 124.35 182.63 123.333 184.08 122.488C185.53 121.643 185.856 121.249 184.8 121.614C175.315 124.849 156.307 126.961 155.04 124.917C154.714 124.389 153.091 123.957 151.43 123.957C149.251 123.957 148.704 123.669 149.462 122.91C150.422 121.95 169.709 113.473 200.64 100.408C212.803 95.2717 227.376 89.0125 230.88 87.4189C231.936 86.9389 235.824 85.2973 239.52 83.7805C254.554 77.5981 285.715 64.3021 287.424 63.3517C291.187 61.2301 301.44 57.7645 301.44 58.6189C301.44 59.0989 299.174 60.5581 296.4 61.8541C289.171 65.2429 266.986 74.9965 266.506 74.9965C266.275 74.9965 261.936 76.9453 256.848 79.3165C251.77 81.6877 247.018 83.6365 246.307 83.6365C245.117 83.6365 240.96 85.4317 225.6 92.5837C222.624 93.9661 221.155 95.0509 222.24 95.0701C223.296 95.0797 224.995 94.4653 226.022 93.6877C227.05 92.9101 228.826 92.2765 229.978 92.2765C232.118 92.2765 242.016 88.5517 242.88 87.4189C243.878 86.0941 249.168 83.9149 250.349 84.3373C252.077 84.9517 260.218 97.2301 265.93 107.838C267.898 111.496 270.01 115.528 272.093 119.579C269.856 115.451 267.504 111.313 265.114 107.368C257.789 95.2909 250.934 85.5373 249.811 85.5949C249.427 85.6045 248.045 86.2381 246.72 86.9965C245.395 87.7549 243.446 88.3885 242.371 88.3981C241.306 88.4173 237.139 90.1165 233.117 92.1709C229.094 94.2253 217.229 99.4765 206.746 103.825C167.472 120.126 162.019 122.536 162.365 123.477C163.334 126.107 184.685 121.701 190.426 117.678C194.179 115.048 194.314 116.267 190.685 119.982C188.621 122.094 185.338 124.216 183.053 124.897C182.4 125.099 181.555 125.348 180.605 125.646ZM114.749 114.011C116.323 114.683 117.936 115.249 118.358 115.268C119.002 115.307 134.832 108.683 179.52 89.6749C185.059 87.3133 193.267 83.9437 197.76 82.1773C204.442 79.5565 217.286 74.0749 228 69.2653C235.728 65.7997 264.643 53.5981 268.32 52.2541C273.485 50.3533 288.97 43.2493 291.331 41.6845C293.194 40.4653 293.184 40.4365 291.149 40.4365C290.006 40.4365 288.806 40.8685 288.48 41.3965C288.154 41.9245 287.04 42.3565 286.013 42.3565C284.976 42.3565 283.382 42.7789 282.47 43.3069C281.549 43.8253 276.912 45.7837 272.16 47.6653C267.408 49.5565 262.656 51.4957 261.6 51.9853C260.544 52.4749 256.435 54.1357 252.48 55.6717C244.195 58.8973 206.506 74.3149 195.84 78.8461C191.885 80.5261 185.827 82.9069 182.4 84.1357C178.973 85.3645 169.248 89.2429 160.8 92.7469C152.352 96.2605 138.528 101.944 130.08 105.39C121.632 108.837 114.086 111.909 113.309 112.225C112.31 112.638 112.714 113.147 114.749 114.011ZM227.021 48.0877C221.03 42.0589 216.365 38.3821 211.555 36.1645C217.018 38.5837 222.48 42.5581 228.048 48.1645C232.224 52.3597 235.939 55.7965 236.314 55.7965C236.688 55.7965 237.13 54.6157 237.293 53.1661C237.629 50.3053 239.251 49.4797 266.4 38.4301C272.736 35.8573 277.459 33.7357 276.883 33.7261C276.317 33.7261 273.293 31.7293 270.163 29.2909C273.293 31.7293 276.422 33.7165 277.104 33.7165C277.795 33.7165 282.365 32.2189 287.261 30.3949C292.157 28.5613 298.963 26.4109 302.4 25.6141C308.544 24.1837 308.669 24.1933 310.272 26.2957C311.674 28.1293 313.92 32.1133 315.917 36.0493C314.65 33.7741 313.286 31.6141 312.134 30.1741C310.474 28.0909 308.765 26.9965 307.2 27.0061C304.963 27.0061 288.95 31.7005 284.64 33.6205C283.584 34.0909 280.56 35.2237 277.92 36.1357C275.28 37.0477 271.824 38.3629 270.24 39.0541C268.656 39.7453 261.312 42.7597 253.92 45.7453C246.528 48.7405 240.326 51.3325 240.144 51.5053C239.962 51.6877 240.096 52.2925 240.442 52.8493C240.797 53.4253 241.219 53.7517 241.862 53.7997C240.086 53.9821 239.011 53.4445 238.925 52.1965C238.867 51.2749 238.541 51.7741 238.205 53.3197C237.869 54.8557 237.158 56.2669 236.621 56.4397C236.093 56.6221 231.773 52.8589 227.021 48.0877ZM222.048 229.643C222.413 229.537 222.797 229.441 223.21 229.355C229.142 228.184 235.258 225.659 237.418 223.499C239.261 221.656 239.261 221.588 237.523 222.28C235.238 223.192 228.912 224.305 222.355 225.006C228.95 224.027 235.891 221.896 243.235 218.622C250.253 215.502 251.51 215.464 248.698 218.459C245.222 222.155 231.034 228.068 222.048 229.643ZM132.95 125.896C139.93 127.825 145.19 128.123 156.518 128.104C165.59 128.085 173.28 127.489 177.629 126.568C176.15 127.029 174.634 127.499 173.338 127.912C169.238 129.208 164.755 129.717 157.43 129.717C148.915 129.717 142.512 128.814 132.95 125.896ZM38.5248 166.081C42.8736 164.622 44.2752 163.144 43.2192 161.435C42.4704 160.216 42.1344 160.225 40.6176 161.54C38.3808 163.48 33.12 165.237 29.5584 165.237C25.5648 165.237 26.88 163.988 33.6672 161.32C36.9216 160.043 39.7824 158.488 40.032 157.864C40.7712 155.982 37.0656 148.619 35.184 147.995C36.0864 148.254 37.3152 149.694 38.1792 151.557C39.0912 153.534 40.1664 155.301 40.56 155.473C40.9536 155.656 41.28 156.548 41.28 157.46C41.28 158.516 39.6384 159.841 36.72 161.128C32.8512 162.817 32.544 163.144 34.6752 163.22C36.048 163.278 38.2752 162.453 39.6192 161.397C42.6336 159.025 42.8928 159.025 44.1408 161.358C44.9664 162.894 44.7552 163.451 42.9696 164.411C42.0192 164.929 40.4928 165.496 38.5248 166.081ZM280.714 136.888C283.363 142.398 285.12 146.353 285.13 146.968C285.13 147.774 285.994 149.733 287.04 151.317C288.403 153.371 288.95 153.717 288.95 152.517C288.96 150.078 292.474 150.385 298.406 153.342C299.683 153.976 300.883 154.696 301.997 155.502C298.877 153.361 295.354 151.797 293.088 151.797C289.968 151.797 289.92 151.864 289.92 156.174C289.92 162.414 288.442 160.677 286.406 152.027C285.571 148.465 283.517 143.099 280.714 136.888ZM312 27.4765C310.493 25.6621 311.059 25.6621 314.534 27.4669C316.915 28.7149 317.011 28.9069 315.235 28.9069C314.112 28.9165 312.653 28.2733 312 27.4765ZM196.349 222.443C189.504 220.187 182.496 216.721 175.517 212.085C181.795 216.251 189.437 220.014 196.349 222.443ZM312.173 171.86C314.006 181.019 312.106 192.232 306.221 203.848C311.962 192.501 313.968 181.22 312.173 171.86ZM100.349 115.806C103.661 116.305 107.587 117.352 112.771 119.061C107.549 117.352 103.622 116.305 100.349 115.806ZM34.9248 147.957C33.8016 147.985 28.5216 151.115 23.0304 154.744C28.5408 151.096 33.8304 147.957 34.9056 147.957C34.9152 147.957 34.9248 147.957 34.9248 147.957ZM219.091 231.582V231.573C218.899 232.725 221.28 235.633 224.4 238.552C221.261 235.624 218.87 232.715 219.091 231.582ZM177.226 29.0605C168.278 27.3901 162.691 26.1901 156 24.6157C162.634 26.1805 168.346 27.3997 177.226 29.0605ZM313.594 50.1805C310.656 51.6397 307.642 52.9165 306.749 52.9165C307.632 52.9165 310.646 51.6397 313.594 50.1805ZM205.21 34.0525C204.701 33.9469 204.182 33.8509 203.664 33.7549C201.792 33.4285 200.006 33.1213 198.307 32.8237C200.045 33.1309 201.859 33.4381 203.77 33.7741C204.25 33.8509 204.73 33.9469 205.21 34.0525ZM320.189 46.0141C320.189 46.1005 320.179 46.1677 320.15 46.2061C320.15 46.2157 320.141 46.2253 320.131 46.2349C320.16 46.1773 320.179 46.1101 320.189 46.0141Z" fill="#4A4A4A"/>
<path d="M164.746 291.966C140.342 288.875 115.498 279.265 96.336 265.499C85.0656 257.397 67.2384 239.128 60.1056 228.357C53.4624 218.315 46.2624 203.973 42.8544 193.95C39.8208 185.041 36.4992 171.073 37.3152 170.67C37.6512 170.507 39.648 169.883 41.76 169.288C43.872 168.683 49.056 167.07 53.28 165.688C64.6752 161.982 65.1264 161.925 67.2576 163.845C68.304 164.795 69.8592 167.982 70.704 170.929C72.8064 178.245 75.0912 182.449 78.8736 186.011C83.2704 190.139 86.8896 191.8 93.2448 192.597C98.1792 193.211 99.0912 193.729 103.805 198.587C113.731 208.821 121.642 211.557 129.821 207.601C135.11 205.038 136.522 205.038 138.816 207.601C141.456 210.549 146.938 213.851 151.459 215.205C155.088 216.289 155.712 216.184 159.706 213.851C162.077 212.459 164.717 211.317 165.571 211.317C166.426 211.317 169.402 213.035 172.186 215.137C179.635 220.763 194.275 227.272 203.981 229.269C212.074 230.929 212.429 231.121 214.195 234.587C216.95 239.973 225.408 247.902 231.878 251.157C237.178 253.825 238.349 254.037 247.68 253.989C256.714 253.95 258.557 253.624 265.44 250.888C291.322 240.558 312.154 217.153 317.174 192.731C319.104 183.313 319.114 179.982 317.203 172.629C313.584 158.651 305.366 150.03 293.76 148.024C290.102 147.4 289.853 147.035 283.978 133.557C280.08 124.638 269.837 105.957 262.128 93.7165C258.931 88.6477 256.32 83.9341 256.32 83.2525C256.32 81.9277 257.04 81.5725 275.501 73.9693C282.086 71.2621 289.219 68.2477 291.341 67.2781C295.843 65.2237 302.477 62.5165 302.995 62.5165C303.197 62.5165 303.36 62.9389 303.36 63.4573C303.36 63.9757 304.944 66.8749 306.883 69.9085C314.918 82.4749 322.618 102.443 326.064 119.675C328.474 131.752 328.474 160.331 326.054 172.437C320.909 198.203 308.736 223.288 292.022 242.584C271.104 266.718 242.41 283.345 210.23 289.969C198.826 292.312 175.555 293.339 164.746 291.966ZM228.048 48.1645C219.83 39.8989 211.853 35.1757 203.77 33.7741C176.275 29.0125 167.53 27.3325 156 24.6157C134.083 19.4413 126.413 18.1741 119.146 18.5101C115.382 18.6925 112.32 18.5389 112.32 18.1837C112.33 14.5645 140.026 4.27331 157.286 1.46051C169.162 -0.469089 193.306 -0.48829 205.44 1.41251C227.635 4.90691 252.682 15.6973 270.163 29.2909C273.293 31.7293 276.317 33.7261 276.883 33.7261C277.459 33.7357 272.736 35.8573 266.4 38.4301C239.251 49.4797 237.629 50.3053 237.293 53.1661C237.13 54.6157 236.688 55.7965 236.314 55.7965C235.939 55.7965 232.224 52.3597 228.048 48.1645ZM114.749 114.011C112.714 113.147 112.31 112.638 113.309 112.225C114.086 111.909 121.632 108.837 130.08 105.39C138.528 101.944 152.352 96.2605 160.8 92.7469C169.248 89.2429 178.973 85.3645 182.4 84.1357C185.827 82.9069 191.885 80.5261 195.84 78.8461C206.506 74.3149 244.195 58.8973 252.48 55.6717C256.435 54.1357 260.544 52.4749 261.6 51.9853C262.656 51.4957 267.408 49.5565 272.16 47.6653C276.912 45.7837 281.549 43.8253 282.47 43.3069C283.382 42.7789 284.976 42.3565 286.013 42.3565C287.04 42.3565 288.154 41.9245 288.48 41.3965C288.806 40.8685 290.006 40.4365 291.149 40.4365C293.184 40.4365 293.194 40.4653 291.331 41.6845C288.97 43.2493 273.485 50.3533 268.32 52.2541C264.643 53.5981 235.728 65.7997 228 69.2653C217.286 74.0749 204.442 79.5565 197.76 82.1773C193.267 83.9437 185.059 87.3133 179.52 89.6749C134.832 108.683 119.002 115.307 118.358 115.269C117.936 115.249 116.323 114.683 114.749 114.011ZM46.08 91.8925C46.08 88.6381 53.2032 74.6125 60.2112 64.0621C69.1392 50.6317 88.5792 30.7693 90.7104 32.9101C91.5648 33.7645 77.7024 59.9149 73.7664 64.8685C71.6448 67.5373 64.5504 75.1789 57.9936 81.8605C48.7392 91.3069 46.08 93.5437 46.08 91.8925ZM240.442 52.8493C240.096 52.2925 239.962 51.6877 240.144 51.5053C240.326 51.3325 246.528 48.7405 253.92 45.7453C261.312 42.7597 268.656 39.7453 270.24 39.0541C271.824 38.3629 275.28 37.0477 277.92 36.1357C280.56 35.2237 283.584 34.0909 284.64 33.6205C288.95 31.7005 304.963 27.0061 307.2 27.0061C308.765 26.9965 310.474 28.0909 312.134 30.1741C315.571 34.4749 320.842 45.0925 320.122 46.2541C319.325 47.5597 308.554 52.9165 306.749 52.9165C304.07 52.9165 305.232 50.4205 308.669 48.7789C310.531 47.8861 312.307 46.5229 312.605 45.7357C312.902 44.9581 311.578 41.5021 309.648 38.0557C306.499 32.4301 305.846 31.7965 303.139 31.7965C300.211 31.7965 296.717 32.6989 289.92 35.2141C288.077 35.8957 283.315 37.6237 279.36 39.0445C273.024 41.3293 254.688 48.7789 246.096 52.5517C242.458 54.1453 241.277 54.2125 240.442 52.8493ZM35.8464 132.376C36.5376 121.269 38.3424 112.293 39.9936 111.745C40.5984 111.544 41.616 112.945 42.2496 114.865C43.8048 119.589 48.048 124.216 52.752 126.337C54.8928 127.297 56.64 128.421 56.64 128.833C56.64 129.918 52.4832 132.702 43.296 137.781L35.232 142.225L35.8464 132.376ZM7.42076 171.381C5.89435 169.854 6.88316 167.397 10.32 164.133C12.8352 161.742 19.0656 157.307 24.6528 153.688C17.184 158.872 8.63996 165.957 8.63996 167.733C8.63996 168.472 9.09116 169.077 9.63836 169.077C11.4048 169.077 23.4336 165.169 26.064 163.739C27.4656 162.981 29.2512 162.357 30.0288 162.357C30.5856 162.357 31.44 162.155 32.4096 161.819C26.7264 164.142 25.824 165.237 29.5584 165.237C33.12 165.237 38.3808 163.48 40.6176 161.541C42.1344 160.225 42.4704 160.216 43.2192 161.435C45.1104 164.488 39.1488 166.821 22.56 169.537C18.336 170.229 13.3632 171.083 11.5008 171.438C9.64796 171.793 7.81436 171.765 7.42076 171.381ZM41.472 148.725C39.0528 146.305 40.3968 144.52 47.28 140.977C55.3152 136.84 56.2848 136.686 57.1392 139.365C58.0224 142.149 56.1024 144.03 49.2192 147.16C44.3904 149.358 43.2384 149.963 42.4896 149.637C42.1632 149.493 41.9136 149.166 41.472 148.725ZM313.2 47.1085C312.019 49.0189 312.058 49.0189 315.37 47.4349C318.086 46.1389 318.614 45.4573 318.096 43.8541C317.741 42.7693 317.453 41.3389 317.453 40.6765C317.443 40.0141 317.088 39.4765 316.656 39.4765C316.234 39.4765 314.957 37.6429 313.824 35.3965C309.926 27.6397 307.642 26.6125 300.48 29.4253L297.12 30.7405L300.97 30.2221C305.51 29.6077 306.317 30.3277 311.155 39.1981C313.939 44.3245 314.227 45.4381 313.2 47.1085ZM184.694 217.413C181.488 215.781 178.358 213.976 175.517 212.085C166.291 205.969 145.066 185.521 142.925 180.683C142.147 178.936 140.102 177.093 137.952 175.96C139.43 176.565 141.254 176.958 141.994 176.833C143.587 176.565 147.84 178.667 147.84 179.733C147.84 180.136 146.918 180.597 145.805 180.769C144.067 181.029 145.018 182.411 152.266 190.101C161.184 199.566 173.146 209.752 180.163 213.861C182.448 215.205 184.32 216.616 184.32 216.99C184.32 217.096 184.454 217.24 184.694 217.413ZM311.789 170.104C311.674 169.768 311.549 169.422 311.414 169.096C308.602 162.059 298.176 152.766 293.088 152.757C291.168 152.757 290.947 153.304 290.688 158.526C290.342 165.438 288.787 166.437 287.712 160.437C287.28 158.056 286.464 153.601 285.878 150.529C285.744 149.8 285.514 148.926 285.187 147.909C285.715 149.454 286.128 150.846 286.406 152.027C288.442 160.677 289.92 162.414 289.92 156.174C289.92 151.864 289.968 151.797 293.088 151.797C296.89 151.797 304.214 156.203 307.258 160.302C309.37 163.163 310.877 166.475 311.789 170.104ZM125.875 64.9357C125.866 62.9005 125.606 61.5565 125.011 61.5565C123.6 61.5565 122.448 53.9245 123.658 52.7149C124.33 52.0429 125.299 53.0221 126.71 55.7869C128.304 58.9069 128.909 62.2669 129.341 70.3789C129.734 77.7805 130.051 81.1981 132.518 82.7725C130.099 81.3037 129.696 78.2509 129.379 71.9341C129.13 67.0189 128.342 61.7005 127.632 60.1165C126.499 57.6013 126.326 57.7453 125.875 64.9357ZM186.24 123.419C187.843 122.469 189.475 121.23 190.685 119.982C194.314 116.267 194.179 115.048 190.426 117.678C188.602 118.955 185.194 120.28 181.373 121.393C184.118 120.299 187.44 118.648 189.821 117.15C196.493 112.955 196.8 112.849 196.8 114.721C196.8 116.161 190.771 120.933 186.24 123.419ZM296.746 218.67C303.802 209.56 309.091 199.105 311.53 189.467C310.445 194.152 308.678 199 306.221 203.848C303.533 209.157 300.346 214.11 296.746 218.67ZM243.274 247.71C244.061 247.739 244.915 247.758 245.846 247.758C250.714 247.787 255.398 247.019 260.381 245.272C259.709 245.531 259.027 245.771 258.355 246.001C253.814 247.566 248.323 248.113 243.274 247.71ZM112.042 96.5869C116.467 91.9309 120.432 86.5645 122.544 82.1389C120.97 85.6237 118.694 88.9549 115.392 92.9197C114.403 94.1005 113.27 95.3389 112.042 96.5869ZM190.944 220.341C195.456 222.136 201.149 224.065 204.288 224.699C200.342 223.902 195.686 222.357 190.944 220.341ZM93.8784 109.969C97.2096 108.568 99.7824 106.926 103.728 103.969C101.136 105.985 98.6016 107.704 96.48 108.837C95.9136 109.134 95.0016 109.528 93.8784 109.969ZM168.605 124.062C165.187 124.446 162.682 124.341 162.365 123.477C162.614 124.158 165.235 124.321 168.605 124.062ZM123.379 80.0941C124.272 77.5021 125.002 73.9693 125.434 70.6765C125.05 74.2669 124.416 77.2813 123.379 80.0941ZM40.0704 157.72C40.0608 157.768 40.0416 157.816 40.032 157.864C39.8304 158.373 37.9008 159.486 35.4432 160.581C37.4976 159.611 39.4272 158.469 40.0704 157.72ZM157.43 129.717C161.981 129.717 165.427 129.525 168.374 129.064C165.091 129.678 162.384 129.717 157.43 129.717ZM268.618 241.672C271.594 240.126 274.742 238.264 278.131 236.056C275.088 238.129 271.91 240.011 268.618 241.672ZM277.786 130.657C274.09 123.102 269.558 114.712 265.114 107.368C269.674 114.894 274.118 123.121 277.786 130.657ZM34.7808 147.976C34.8384 147.966 34.896 147.957 34.944 147.957C34.9536 147.957 34.9632 147.957 34.9728 147.957C34.9152 147.957 34.848 147.966 34.7808 147.976Z" fill="#AAAAAA"/>
<path d="M233.645 245.349C227.99 242.613 218.669 233.771 219.091 231.553C219.254 230.728 220.243 229.931 221.29 229.768C230.218 228.414 245.126 222.261 248.698 218.459C251.51 215.464 250.253 215.502 243.235 218.622C228.826 225.045 215.981 227.041 204.288 224.699C198.547 223.547 184.32 218.056 184.32 216.99C184.32 216.616 182.448 215.205 180.163 213.861C173.146 209.752 161.184 199.566 152.266 190.101C145.018 182.411 144.067 181.029 145.805 180.769C146.918 180.597 147.84 180.136 147.84 179.733C147.84 178.667 143.587 176.565 141.994 176.833C141.254 176.958 139.421 176.565 137.933 175.95C136.454 175.336 134.698 174.837 134.045 174.837C133.402 174.837 132.451 174.462 131.952 174.011C131.453 173.56 127.795 172.216 123.84 171.025C119.885 169.835 115.632 168.462 114.403 167.992C113.165 167.512 108.202 166.686 103.363 166.158C98.5152 165.621 90.9216 164.785 86.4768 164.296C68.2752 162.28 58.7232 152.027 62.3808 138.424C64.5696 130.321 76.4736 120.241 88.0224 116.737C96.4608 114.174 101.942 115.077 122.4 122.363C138.566 128.133 146.141 129.717 157.43 129.717C167.472 129.717 168.317 129.553 183.36 124.734C187.546 123.39 196.8 116.497 196.8 114.721C196.8 112.849 196.493 112.955 189.821 117.15C186.528 119.224 181.459 121.566 178.56 122.373C172.118 124.158 162.854 124.792 162.365 123.477C162.019 122.536 167.472 120.126 206.746 103.825C217.229 99.4765 229.094 94.2253 233.117 92.1709C237.139 90.1165 241.306 88.4173 242.371 88.3981C243.446 88.3885 245.395 87.7549 246.72 86.9965C248.045 86.2381 249.427 85.6045 249.811 85.5949C250.934 85.5373 257.789 95.2909 265.114 107.368C274.675 123.16 284.611 143.8 285.878 150.529C286.464 153.601 287.28 158.056 287.712 160.437C288.787 166.437 290.342 165.438 290.688 158.526C290.947 153.304 291.168 152.757 293.088 152.757C298.176 152.766 308.602 162.059 311.414 169.096C318.384 186.51 301.978 220.216 279.158 235.374C265.795 244.245 256.214 247.816 245.846 247.758C240.106 247.729 237.523 247.221 233.645 245.349ZM267.84 184.993C267.84 183.707 265.258 182.507 255.36 179.195C249.533 177.237 239.434 177.217 238.694 179.157C236.803 184.072 242.15 185.886 259.44 186.203C266.122 186.328 267.84 186.078 267.84 184.993ZM273.6 171.141C273.6 168.664 263.078 154.792 257.165 149.473C252.029 144.865 248.218 143.195 246.566 144.846C244.31 147.102 246.355 150.357 253.44 155.781C257.395 158.814 263.222 163.902 266.371 167.099C272.496 173.32 273.6 173.934 273.6 171.141ZM280.32 159.928C280.32 154.283 271.728 136.264 265.258 128.344C262.81 125.339 258.518 124.638 256.982 127C256.138 128.315 256.973 129.947 261.475 135.841C266.659 142.609 274.56 154.254 274.56 155.137C274.56 156.232 278.707 162.357 279.456 162.357C279.926 162.357 280.32 161.262 280.32 159.928ZM146.4 209.819C144.816 209.022 142.013 207.131 140.179 205.605C136.954 202.945 136.877 202.725 138.019 199.576C138.672 197.771 139.2 194.238 139.2 191.733C139.2 189.217 139.594 187.297 140.083 187.48C141.581 188.027 160.32 206.565 160.32 207.505C160.32 208.878 154.954 211.317 151.968 211.297C150.49 211.278 147.984 210.616 146.4 209.819ZM114.192 202.705C111.178 201.121 102.019 192.28 102.874 191.781C103.056 191.675 106.925 188.008 111.475 183.64L119.76 175.691L126.106 177.745C132.202 179.713 132.49 179.953 133.526 183.784C134.112 185.982 134.41 189.774 134.179 192.203C133.19 202.456 123.427 207.592 114.192 202.705ZM84.2976 185.397C79.8624 182.459 74.88 174.75 74.88 170.824C74.88 169 75.312 168.933 83.28 169.537C95.3952 170.449 112.627 172.84 113.53 173.742C114.662 174.875 104.371 184.216 99.6192 186.376C93.6768 189.073 89.4336 188.795 84.2976 185.397ZM8.64001 167.733C8.64001 164.853 31.1808 147.957 35.0112 147.957C36.48 147.957 40.2528 154.609 40.3008 157.269C40.32 158.478 32.4768 162.357 30.0288 162.357C29.2512 162.357 27.4656 162.981 26.064 163.739C23.4336 165.169 11.4048 169.077 9.63841 169.077C9.09121 169.077 8.64001 168.472 8.64001 167.733ZM57.8688 123.054C47.472 120.491 43.008 109.758 48.1344 99.6781C49.2672 97.4509 55.9296 89.7613 62.9472 82.5805C76.8192 68.3725 79.9008 64.1389 89.2416 46.3597C99.984 25.9021 103.555 23.2141 119.942 23.1757C125.453 23.1661 132.576 23.7517 135.782 24.4813C138.979 25.2109 145.056 26.5549 149.28 27.4669C153.504 28.3789 158.035 29.5021 159.36 29.9629C161.885 30.8461 164.122 31.2397 188.4 35.1853C210.662 38.8045 215.933 41.0989 225.024 51.1501C230.698 57.4093 231.466 59.3101 228.72 60.3085C227.251 60.8365 210.307 67.8541 204.96 70.1389C203.904 70.5901 200.659 71.8861 197.76 73.0285C194.861 74.1709 191.616 75.4861 190.56 75.9565C183.206 79.2397 156.72 89.3965 155.501 89.3965C154.838 89.3965 154.704 88.1485 155.136 85.8829C155.731 82.6669 155.635 82.4461 153.974 83.2429C152.976 83.7229 148.253 84.1165 143.472 84.1165C130.522 84.1165 130.042 83.6461 129.341 70.3789C128.909 62.2669 128.304 58.9069 126.71 55.7869C125.299 53.0221 124.33 52.0429 123.658 52.7149C122.448 53.9245 123.6 61.5565 125.011 61.5565C126.97 61.5565 125.328 76.0621 122.736 81.7357C119.626 88.5133 111.955 97.7005 104.909 103.067C97.7472 108.539 95.088 109.902 86.6592 112.475C82.848 113.637 76.8576 116.469 73.3536 118.763C66.5472 123.237 62.8032 124.273 57.8688 123.054ZM118.09 101.157C118.099 100.763 119.606 98.5357 121.45 96.2221C123.293 93.8989 124.8 91.6525 124.8 91.2109C124.8 89.1853 128.39 88.6573 133.363 89.9437C136.205 90.6829 138.758 91.5085 139.037 91.7869C139.93 92.6893 136.032 94.9357 127.459 98.4493C118.445 102.136 118.08 102.241 118.09 101.157ZM313.2 47.1085C314.227 45.4381 313.939 44.3245 311.155 39.1981C306.317 30.3277 305.51 29.6077 300.97 30.2221L297.12 30.7405L300.48 29.4253C307.642 26.6125 309.926 27.6397 313.824 35.3965C314.957 37.6429 316.234 39.4765 316.656 39.4765C317.088 39.4765 317.443 40.0141 317.453 40.6765C317.453 41.3389 317.741 42.7693 318.096 43.8541C318.614 45.4573 318.086 46.1389 315.37 47.4349C312.058 49.0189 312.019 49.0189 313.2 47.1085ZM300.97 43.3357C298.186 38.9197 297.946 37.0381 300.077 36.2221C303.12 35.0509 304.291 35.7229 306.845 40.0909C309.36 44.3725 309.389 44.5837 307.661 45.8509C304.838 47.9149 303.562 47.4349 300.97 43.3357ZM318.403 34.0333C316.954 32.5933 318.058 31.5853 323.923 28.9453C331.613 25.4989 334.406 25.0381 334.829 27.1309C335.059 28.2829 333.226 29.4925 327.955 31.6909C320.4 34.8301 319.43 35.0701 318.403 34.0333Z" fill="#F8F8F8"/>
</svg>
